<?xml version="1.0" encoding="utf-8" ?><svg xmlns="http://www.w3.org/2000/svg" xmlns:xlink="http://www.w3.org/1999/xlink" width="488" height="488" viewBox="0 0 488 488"><path fill="#222" d="M272.58 0L476.411 0C478.063 1.61867 481.691 0.987666 484.147 1.06641C483.182 13.215 483.879 23.8127 484.819 35.8991C485.279 41.8142 484.756 48.0834 484.822 54.0165C484.147 79.806 483.324 105.633 483.2 131.432C483.171 137.36 482.924 143.038 482.992 149.057L484.895 250.009C485.133 258.649 486.559 268.37 486.649 277.149C486.714 283.52 486.34 289.894 486.134 296.235L485.591 316.147C484.366 354.196 485.706 393.238 487.029 431.264C487.139 434.42 486.593 450.05 488 451.783L488 485.676C484.791 486.499 482.084 484.914 480.645 485.368C476.738 486.601 457.632 485.276 452.167 485.104L428.991 484.563C420.596 484.407 412.199 484.745 403.816 484.586C393.051 484.382 382.383 484.79 371.624 485.002L320.163 486.141C314.76 486.274 309.363 486.681 303.97 486.754C293.448 486.897 282.878 486.454 272.362 486.487C259.853 486.525 247.319 486.92 234.808 486.68C218.441 486.061 202.447 485.146 186.045 485.62C172.709 485.718 159.516 486.339 146.173 486.095C121.94 485.634 97.6002 487.168 73.3891 486.915C53.4271 486.377 33.4654 486.604 13.4984 486.709C10.3599 486.725 7.14996 486.708 4.02433 486.966C3.61645 477.441 4.24196 468.38 3.98274 458.875L3.02798 417.227C2.94428 413.978 2.51273 410.69 2.48757 407.483C2.36838 392.293 2.04858 376.683 2.24835 361.495L3.27541 315.702C3.56808 306.53 4.30098 297.91 4.16359 288.651C4.41061 279.454 3.50023 270.438 3.08259 261.272C2.63575 251.465 2.06072 242.091 2.28609 232.229C2.43384 225.764 2.16003 218.811 2.04457 212.307C1.94448 206.668 1.37603 200.798 1.18166 195.09C0.282211 186.081 1.7922 173.402 0.705545 164.31L0.665279 164.205C0.68062 164.137 0.802215 163.632 0.791973 163.572C0.38114 161.164 1.44713 156.441 0 154.616L0 123.593C2.06271 121.214 0.609247 107.832 0.982166 103.803C2.60463 86.2735 2.2482 68.5246 2.02674 50.9102L1.49774 23.2249C1.40144 18.4501 0.0063264 9.3248 3.04215 4.65924C3.69502 3.65588 6.75864 3.35248 8.02296 3.16866C18.8824 1.58983 29.5743 2.95225 40.4697 3.17691C55.1987 3.34462 69.9289 3.37226 84.6585 3.25984C89.5497 3.21829 93.7996 2.78766 98.5281 2.64708L139.979 1.65675C146.412 1.56106 153.212 1.77798 159.692 1.73316C163.187 1.67589 167.056 2.24301 170.531 2.00773C179.779 1.38176 188.904 0.918996 198.182 0.873632L253.146 1.07326C257.692 1.05948 262.238 1.02261 266.783 0.962654C268.789 0.941713 271.325 1.49019 272.58 0Z"/><path fill="#0A0809" d="M0.705545 164.31C3.29965 168.612 1.83057 189.406 1.18166 195.09C0.282211 186.081 1.7922 173.402 0.705545 164.31Z"/><path fill="#F9F9F9" d="M4.19728 4.51809C12.558 10.3652 119.531 6.61976 136.259 6.28423L195.98 5.56369C202.462 5.48218 210.041 5.88681 216.589 6.05253C224.899 6.25457 233.212 6.29528 241.524 6.17464C241.324 9.65888 240.669 14.8296 240.991 18.1841C242.995 39.1054 242.156 59.7684 241.243 80.7344C240.62 95.0448 240.461 109.481 240.344 123.875C240.368 142.28 240.519 160.685 240.799 179.088C240.982 187.413 241.358 195.858 241.522 204.228C241.799 218.419 241.54 232.513 241.797 246.686C237.186 246.331 232.011 247.059 227.426 246.697C204.458 244.887 181.876 246.537 158.891 246.608L77.7941 247.303C61.4287 247.337 45.0576 246.155 28.6603 246.602C21.5869 246.795 14.3683 247.12 7.305 247.227C7.59787 230.892 6.78046 214.486 6.4098 198.159C6.40267 194.53 5.69125 190.589 5.75558 187.002C5.92455 177.579 5.42544 168.153 5.38661 158.75C5.23259 143.383 5.3177 128.015 5.64192 112.652C5.95642 100.927 6.89474 89.3426 6.50644 77.5502C6.35866 73.062 6.76639 68.2285 6.73669 63.6476C6.63694 48.2626 5.55533 33.0046 5.00167 17.6307C4.87839 14.6203 4.70952 11.612 4.49509 8.6068C4.41736 7.45318 4.15524 5.52875 4.19728 4.51809Z"/><path fill="#222" d="M129.371 59.3608C157.155 58.2622 181.893 72.3353 190.252 99.8432C191.284 103.242 191.844 106.596 192.492 110.08C183.646 110.205 173.342 110 164.673 110.545C161.799 99.1187 155.842 90.0191 144.905 85.0977C137.079 81.27 126.03 81.5208 117.97 84.3558C82.4861 96.8369 81.8031 167.474 115.731 182.085C124.51 185.866 135.952 186.063 144.808 182.41C153.617 178.776 159.084 171.819 162.686 163.315C163.735 160.612 164.908 157.11 165.659 154.298C170.253 154.593 175.132 154.673 179.767 154.928C183.747 155.146 189.542 155.524 193.383 155.25C190.956 167.973 186.79 178.779 178.066 188.678C155.191 214.635 110.417 214.888 85.3552 191.82C55.7762 164.595 55.1096 109.58 81.5394 79.9345C94.4093 65.499 110.658 60.2659 129.371 59.3608Z"/><path fill="#222" d="M31.69 22.3282L34.536 22.3774L34.5259 52.9605L30.4773 52.9885L30.4803 48.2951L30.4625 31.2223C28.9554 31.219 24.4614 31.5582 23.4153 30.9764C23.0815 30.0646 23.0903 30.1137 23.1414 29.1432C24.0643 27.5664 25.3116 28.1195 27.3014 27.5296C30.6595 26.534 30.2994 24.9433 31.69 22.3282Z"/><path fill="#F9F9F9" d="M245.443 6.01006L388.988 5.52404C399.884 5.33507 410.781 5.24713 421.679 5.26023C437.495 5.37574 453.413 5.92077 469.251 5.73067C472.384 5.69306 476.184 5.75162 479.277 6.16333C479.202 11.0911 479.055 16.3945 479.377 21.3005C479.957 30.1582 480.514 39.013 480.431 47.8977C480.314 57.4513 480.02 67.0019 479.548 76.5445C479.417 79.719 479.112 82.9676 479.045 86.1259C478.467 113.153 478.3 140.187 478.543 167.219C478.606 175.149 479.26 183.291 479.383 191.213C479.626 206.873 480.139 222.57 479.836 238.225C479.771 240.949 479.874 243.582 479.689 246.304C473.56 246.798 467.396 246.112 461.264 246.061C457.444 246.029 453.687 245.883 449.874 245.674C438.69 245.063 427.376 244.966 416.177 244.998C397.426 245.059 378.678 245.33 359.933 245.813C350.5 246.13 341.063 246.297 331.625 246.315C326.075 246.378 320.183 246.599 314.639 246.11C314.235 246.074 314.156 246.061 313.727 246.092L314.51 247.179L314.462 247.439C312.337 248.032 290.832 247.705 286.923 247.815C286.361 248.395 274.984 248.439 273.601 247.588C272.949 247.186 272.847 246.71 272.665 246.066C268 246.303 263.344 246.405 258.664 246.497C254.714 246.575 250.644 246.341 246.698 246.541C246.671 226.232 246.477 205.923 246.117 185.617C245.812 174.13 245.041 161.788 244.977 150.389C244.928 133.385 245.022 116.38 245.26 99.3777L246.675 42.9815C246.878 30.8419 244.838 17.1264 245.443 6.01006Z"/><path fill="#7D7A7D" d="M280.296 246.013C286.044 245.816 291.795 245.715 297.546 245.711C299.865 245.707 304.083 245.62 306.243 246.016C308.725 245.943 311.544 246.25 313.727 246.092L314.51 247.179L314.462 247.439C312.337 248.032 290.832 247.705 286.923 247.815C286.361 248.395 274.984 248.439 273.601 247.588C272.949 247.186 272.847 246.71 272.665 246.066C274.851 246.074 277.566 245.927 279.659 246.005L280.296 246.013Z"/><path fill="#0A0809" d="M280.296 246.013C286.044 245.816 291.795 245.715 297.546 245.711C299.865 245.707 304.083 245.62 306.243 246.016C307.171 246.118 307.881 246.233 308.8 246.401C308.474 246.631 308.556 246.629 308.222 246.699C305.773 247.217 281.34 247.335 280.521 246.862L280.296 246.013Z"/><defs><linearGradient id="gradient_0" gradientUnits="userSpaceOnUse" x1="276.59702" y1="245.55304" x2="275.85135" y2="247.85652"><stop offset="0" stop-color="#373B34"/><stop offset="1" stop-color="#4D484F"/></linearGradient></defs><path fill="url(#gradient_0)" d="M272.665 246.066C274.851 246.074 277.566 245.927 279.659 246.005L279.359 247.152C280.385 248.358 285.146 247.755 286.923 247.815C286.361 248.395 274.984 248.439 273.601 247.588C272.949 247.186 272.847 246.71 272.665 246.066Z"/><path fill="#222" d="M350.224 62.5058C359.599 62.3382 369.664 62.5143 379.087 62.5291C379.44 65.3204 381.023 71.0359 381.739 73.897C383.905 82.3915 386.137 90.8691 388.434 99.329L404.596 162.695C406.688 152.229 409.499 141.575 412.045 131.195L421.706 90.8131C423.978 81.1568 426.199 72.3428 428.148 62.516C437.561 62.2889 448.158 62.5193 457.613 62.5438C454.596 74.4635 451.072 86.7098 447.969 98.7282L429.698 167.43L424.085 188.8C422.514 194.684 421.062 199.212 419.859 205.289C418.369 205.346 416.688 205.343 415.194 205.307C406.903 205.109 398.438 205.636 390.168 205.324C388.703 198.294 385.701 187.98 383.822 180.857L374.766 145.641C372.355 136.44 370.11 127.137 367.849 117.897C366.661 113.046 365.696 108.074 364.375 103.269C362.153 113.809 359.298 124.604 356.767 135.095C351.119 158.499 344.708 181.914 339.064 205.305C337.654 205.358 336.203 205.396 334.794 205.353C326.369 205.094 317.777 205.648 309.378 205.26L271.584 62.478C280.796 62.7783 291.838 62.5073 301.149 62.5084C301.397 64.8009 302.153 67.8709 302.686 70.1642C308.782 96.3882 315.377 122.501 321.57 148.7C322.696 153.463 324.141 158.144 325.1 162.916C326.283 155.752 329.479 144.614 331.278 137.442L344.516 85.3503C346.419 77.7483 348.654 70.2037 350.224 62.5058Z"/><path fill="#7D7A7D" d="M463.999 136.344L464.39 136.359L464.264 136.697C463.157 137.315 462.91 137.411 461.687 137.752L461.316 136.967L461.611 136.648C462.491 136.58 463.126 136.486 463.999 136.344Z"/><path fill="#F9F9F9" d="M185.691 250.617C195.33 250.41 205.775 250.263 215.387 250.795C224.349 251.292 232.755 251.545 241.725 251.481C241.534 267.653 242.764 283.514 242.76 299.681C242.734 322.2 241.167 344.844 241.054 367.345C240.953 387.451 241.644 407.654 242.213 427.751L242.966 466.198C243.03 471.268 242.779 477.012 242.781 482.249C229.672 482.212 216.194 480.679 203.206 480.734L109.363 481.733C104.397 481.802 99.4533 482.167 94.4998 482.282C84.7689 482.449 75.0364 482.497 65.3043 482.426C53.3498 481.949 41.3739 481.5 29.4122 481.801C22.5358 481.973 15.6609 482.201 8.78375 482.307C8.50093 476.111 8.7679 467.71 8.72381 461.309L8.25946 424.954C8.15456 413.169 7.23153 401.33 7.20692 389.363C7.16663 369.176 7.34301 348.99 7.73601 328.807L8.92233 287.525C9.15661 275.687 7.05806 263.51 7.44954 251.667C21.1487 252.091 36.5791 251.217 50.4997 251.289C95.5638 251.895 140.635 251.671 185.691 250.617Z"/><path fill="#222" d="M91.6581 304.875C121.936 304.91 153.321 305.371 183.494 304.729C183.833 312.144 183.939 319.567 183.811 326.988C161.443 327.417 138.055 326.948 115.551 327.038L115.536 361.964L175.999 361.931C176.086 367.514 176.046 373.22 176.062 378.812L176.051 383.962C156.005 384.243 135.641 383.835 115.523 384.008L115.517 421.394C115.517 427.73 115.28 436.334 115.681 442.508C106.89 442.83 96.2994 442.642 87.4496 442.566C87.6125 431.314 87.4207 419.961 87.4949 408.696C87.7224 374.173 87.1777 339.463 87.5447 304.96L91.6581 304.875Z"/><path fill="#5F5F5D" d="M483.601 245.971L484.182 246.115L484.481 246.618L484.318 246.981L483.672 246.985C482.879 246.851 482.719 246.805 481.992 246.562C482.334 246.145 482.939 246.137 483.601 245.971Z"/></svg>