<?xml version="1.0" encoding="utf-8" ?><svg xmlns="http://www.w3.org/2000/svg" xmlns:xlink="http://www.w3.org/1999/xlink" width="962" height="254" viewBox="0 0 962 254"><path fill="#222" d="M833.892 0L924.263 0C926.856 2.06315 953.428 0.994214 958.597 1.53207C959.02 8.32327 959.298 15.2878 959.862 22.0513C961.143 36.8394 960.264 51.5965 959.928 66.4027C959.055 104.929 958.73 143.634 960.61 182.135C960.919 188.467 960.435 211.633 962 216.113L962 251.139C933.473 251.576 903.932 249.715 875.061 249.757C853.198 249.931 831.338 250.34 809.484 250.983C794.094 251.462 778.777 252.381 763.38 251.966C746.474 251.455 729.509 252.372 712.621 252.07C700.35 251.85 688.191 250.843 675.874 250.723C660.654 250.574 645.633 251.301 630.444 251.557L555.833 252.22L416.319 251.266C396.431 251.243 376.245 252.888 356.324 251.71C343.543 250.954 331.091 251.762 318.341 251.899L231.248 252.512L159.702 252.852C152.092 252.862 108.977 252.134 106.072 254L0 254L0 124.902C2.06682 121.693 0.605373 110.508 0.958154 106.324C3.57666 75.2685 1.25228 44.2018 1.17365 13.1141C1.1676 10.7232 1.8164 7.60404 2.95218 5.47643C4.96732 4.38108 15.4699 3.32004 18.0125 3.44916C58.2515 5.49274 98.1335 3.47704 138.369 2.78629L290.109 1.39496C299.187 1.36208 307.829 1.95513 316.779 2.03829L386.908 2.16839L555.489 2.03937C565.036 1.98146 574.462 1.54184 583.966 1.4345L683.472 0.916528C696.1 0.94095 709.056 1.9561 721.629 1.87892C749.648 1.70691 777.568 2.88137 805.581 1.44964C809.762 1.23598 831.806 2.00173 833.892 0Z"/><path fill="#F9F9F9" d="M4.20513 5.88141C9.79976 7.83251 30.5969 8.29488 36.9867 8.53807C71.0744 9.83539 105.153 7.61175 139.126 7.25314L241.524 7.13263C240.333 23.0394 242.712 36.5902 242.257 52.6823C241.838 67.4904 240.866 82.7261 240.634 97.4392C240.249 147.239 240.647 197.041 241.828 246.829L241.655 247.049C239.744 248.101 208.057 247.485 203.574 247.4C193.139 247.2 181.935 247.841 171.5 247.954L106.404 248.687C98.2387 248.861 89.9513 249.274 81.7696 249.606C57.1031 250.606 31.7868 247.965 7.28685 249.372C7.45791 227.899 6.34654 208.519 5.77786 187.394C5.48077 171.519 5.38862 155.64 5.50144 139.763C5.58061 114.099 7.07649 88.3476 6.67293 62.7767C6.39502 45.1669 5.95345 23.3599 4.20513 5.88141Z"/><path fill="#222" d="M123.065 60.7528C145.113 57.8271 170.27 65.831 182.718 85.0662C188.557 94.0893 190.628 100.759 192.472 111.164C183.216 111.188 173.96 111.271 164.704 111.413C161.492 101.405 158.365 94.32 149.008 88.2825C141.429 83.2998 130.763 82.034 121.948 84.1726C93.11 91.5862 87.3137 126.768 92.7755 151.838C97.8541 175.149 115.55 190.414 139.88 184.992C149.301 182.892 155.427 177.277 160.348 169.261C162.678 165.123 164.258 159.892 165.713 155.345C174.901 155.472 184.054 156.349 193.406 156.349C188.24 185.89 168.614 205.841 138.69 209.143C100.835 213.32 70.6928 189.77 64.0799 152.686C56.4852 110.097 76.2923 65.3966 123.065 60.7528Z"/><path fill="#222" d="M31.6042 23.2792C32.8201 23.3058 33.3575 23.2312 34.3645 23.8777C35.0269 27.6879 34.7283 48.2575 34.2328 53.3641C34.1746 53.9637 33.3754 54.2115 32.8435 54.3768C30.3778 53.7585 30.6177 52.8438 30.4905 50.8235L30.4787 32.2433C28.0706 32.243 25.573 32.6157 23.4232 31.554C22.9125 29.243 29.6184 29.2648 31.6042 23.2792Z"/><path fill="#F9F9F9" d="M284.67 6.31593L372.091 6.66165C406.973 6.50655 444.537 5.72749 479.338 7.06191C478.591 21.0137 480.756 34.6437 480.475 48.3413C480.173 63.0779 479.392 77.9425 479.001 92.7162C478.427 115.007 478.262 137.307 478.508 159.603C478.633 187.3 481.174 220.101 479.61 247.413C465.782 246.95 454.174 247.166 440.486 247.084L246.621 247.44C247.043 221.754 246.454 195.18 245.538 169.519C244.003 126.519 246.181 83.8685 246.656 40.9067C246.781 29.6213 245.183 18.394 245.373 7.0341C257.272 7.08038 272.708 6.65442 284.67 6.31593Z"/><path fill="#222" d="M350.261 63.456L378.957 63.4962C386.827 96.5993 396.251 130.273 404.497 163.482C412.331 130.961 421.545 95.9093 428.188 63.4553L457.643 63.5294C454.196 75.0061 450.951 88.1264 447.936 99.7942L429.21 170.337C426.145 181.966 422.371 194.782 419.756 206.342L390.203 206.388C381.767 172.316 372.314 138.744 364.495 104.405C361.241 116.375 358.302 129.904 355.291 142.066L339.046 206.329C329.157 206.42 319.268 206.41 309.379 206.3L283.763 109.681C279.742 94.3714 275.338 78.8297 271.649 63.4655L301.008 63.4569C307.953 96.2169 317.105 130.785 325.041 163.454C332.658 130.235 342.846 96.4281 350.261 63.456Z"/><path fill="#F9F9F9" d="M645.218 5.84219C670.151 4.69134 692.549 6.61347 716.77 6.52364C716.574 23.6546 717.565 40.0679 717.761 57.154C718.018 79.4469 716.058 102.821 716.049 124.992C716.033 165.903 718.076 206.444 717.799 247.41C704.632 247.13 690.946 245.636 677.898 245.856C655.599 246.232 633.411 246.96 611.091 246.589C593.621 246.298 576.089 247.507 558.622 247.437C543.918 247.699 530.215 247.038 515.615 246.818C505.915 246.673 494.548 247.184 484.782 247.447L483.356 6.70313C496.891 7.45034 513.645 5.86288 527.543 6.32356C535.867 6.00428 544.888 7.23566 553.11 6.87374C583.595 5.53176 614.863 7.24829 645.218 5.84219Z"/><path fill="#222" d="M563.258 63.4817L658.603 63.3906C659.262 70.2358 659.106 79.3396 659.143 86.3983L591.124 86.4125C590.639 97.2865 591.018 111.566 591.075 122.62L651.329 122.612C651.485 128.057 651.387 134.071 651.408 139.559L651.409 145.502L591.037 145.494C591.035 164.964 590.527 186.974 591.246 206.244C582.136 206.464 572.347 206.297 563.182 206.311L563.258 63.4817Z"/></svg>