<?xml version="1.0" encoding="UTF-8"?>
<svg id="Layer_4" data-name="Layer 4" xmlns="http://www.w3.org/2000/svg" viewBox="0 0 2048 512">
  <defs>
    <style>
      .cls-1 {
        fill: #fff;
      }

      .cls-1, .cls-2 {
        stroke: #414042;
        stroke-miterlimit: 10;
        stroke-width: 5px;
      }

      .cls-2, .cls-3 {
        fill: #414042;
      }
    </style>
  </defs>
  <rect class="cls-2" x="1536" width="512" height="512"/>
  <g>
    <rect class="cls-1" x="512" y="0" width="512" height="512"/>
    <polygon class="cls-3" points="930.71 87.29 970.24 87.29 881.06 424.71 841.53 424.71 768.82 162.59 695.88 424.71 653.06 424.71 565.76 87.29 610.71 87.29 679.18 358.59 752.82 87.29 789.53 87.29 862.24 356.24 930.71 87.29"/>
  </g>
  <g>
    <rect class="cls-1" x="1024" y="0" width="512" height="512"/>
    <polygon class="cls-3" points="1387.88 87.29 1387.88 125.88 1217.76 125.88 1217.76 237.18 1342.71 237.18 1342.71 274.82 1217.76 274.82 1217.76 424.71 1172.12 424.71 1172.12 87.29 1387.88 87.29"/>
  </g>
  <g>
    <rect class="cls-1" y="0" width="512" height="512"/>
    <path class="cls-3" d="m353.76,310.71l36.24,9.65c-9.41,37.18-25.41,64.79-48,82.82-22.59,18.04-49.49,27.06-80.71,27.06-41.57,0-75.18-15.25-100.82-45.76-25.65-30.51-38.47-73.14-38.47-127.88,0-51.45,12.86-93.45,38.59-126,25.72-32.55,59.61-48.82,101.65-48.82,32.78,0,59.76,9.61,80.94,28.82,21.18,19.22,35.45,46.08,42.82,80.59l-45.65,6.59c-4.08-22.74-13.02-41.49-26.82-56.24-13.81-14.74-31.22-22.12-52.24-22.12-27.14,0-48.94,12.1-65.41,36.29-16.47,24.19-24.71,57.59-24.71,100.18s8.55,78.18,25.65,101.59c17.1,23.41,39.06,35.11,65.88,35.11,22.74,0,41.92-6.98,57.53-20.94,15.61-13.96,26.78-34.28,33.53-60.94Z"/>
    <path class="cls-3" d="m82.35,90.65v7.07h-36.2v-7.07h14.28v-49.6l-14.76,5.99v-5.9c4.35-2.24,7.67-4.04,9.94-5.41,2.27-1.36,4.87-3.18,7.8-5.46h5.7v60.37h13.25Z"/>
  </g>
</svg>