<?xml version="1.0" encoding="UTF-8"?>
<svg id="Layer_4" data-name="Layer 4" xmlns="http://www.w3.org/2000/svg" viewBox="0 0 512 512">
  <defs>
    <style>
      .cls-1 {
        fill: #fff;
      }

      .cls-1, .cls-2 {
        stroke: #414042;
        stroke-miterlimit: 10;
        stroke-width: 5px;
      }

      .cls-2, .cls-3 {
        fill: #414042;
      }
    </style>
  </defs>
  <rect class="cls-1" y="0" width="512" height="512"/>
  <rect class="cls-2" x="256" y="256" width="256" height="256"/>
  <g>
    <rect class="cls-1" x="256" width="256" height="256"/>
    <polygon class="cls-3" points="465.35 43.65 485.12 43.65 440.53 212.35 420.76 212.35 384.41 81.29 347.94 212.35 326.53 212.35 282.88 43.65 305.35 43.65 339.59 179.29 376.41 43.65 394.76 43.65 431.12 178.12 465.35 43.65"/>
  </g>
  <g>
    <rect class="cls-1" y="256" width="256" height="256"/>
    <polygon class="cls-3" points="181.94 299.65 181.94 318.94 96.88 318.94 96.88 374.59 159.35 374.59 159.35 393.41 96.88 393.41 96.88 468.35 74.06 468.35 74.06 299.65 181.94 299.65"/>
  </g>
  <g>
    <rect class="cls-1" y="0" width="256" height="256"/>
    <path class="cls-3" d="m176.88,155.35l18.12,4.82c-4.71,18.59-12.71,32.39-24,41.41-11.29,9.02-24.75,13.53-40.35,13.53-20.78,0-37.59-7.63-50.41-22.88-12.82-15.25-19.24-36.57-19.24-63.94,0-25.72,6.43-46.72,19.29-63,12.86-16.27,29.8-24.41,50.82-24.41,16.39,0,29.88,4.81,40.47,14.41,10.59,9.61,17.72,23.04,21.41,40.29l-22.82,3.29c-2.04-11.37-6.51-20.74-13.41-28.12-6.9-7.37-15.61-11.06-26.12-11.06-13.57,0-24.47,6.05-32.71,18.15-8.24,12.1-12.35,28.79-12.35,50.09s4.27,39.09,12.82,50.8c8.55,11.71,19.53,17.56,32.94,17.56,11.37,0,20.96-3.49,28.76-10.47,7.8-6.98,13.39-17.14,16.76-30.47Z"/>
    <path class="cls-3" d="m41.17,45.33v3.53h-18.1v-3.53h7.14v-24.8l-7.38,3v-2.95c2.18-1.12,3.83-2.02,4.97-2.7,1.14-.68,2.44-1.59,3.9-2.73h2.85v30.19h6.63Z"/>
  </g>
</svg>